<svg width="29" height="29" viewBox="0 0 29 29" fill="none" xmlns="http://www.w3.org/2000/svg">
<path d="M19.3334 9.66669C21.2562 9.66669 23.1003 10.4305 24.4599 11.7902C25.8196 13.1498 26.5834 14.9939 26.5834 16.9167V25.375H21.7501V16.9167C21.7501 16.2757 21.4955 15.6611 21.0423 15.2078C20.589 14.7546 19.9744 14.5 19.3334 14.5C18.6925 14.5 18.0778 14.7546 17.6246 15.2078C17.1714 15.6611 16.9167 16.2757 16.9167 16.9167V25.375H12.0834V16.9167C12.0834 14.9939 12.8473 13.1498 14.2069 11.7902C15.5665 10.4305 17.4106 9.66669 19.3334 9.66669ZM2.41675 10.875H7.25008V25.375H2.41675V10.875Z" stroke="#141414" stroke-width="1.5" stroke-linecap="round" stroke-linejoin="round"/>
<path d="M4.83341 7.25002C6.1681 7.25002 7.25008 6.16804 7.25008 4.83335C7.25008 3.49867 6.1681 2.41669 4.83341 2.41669C3.49873 2.41669 2.41675 3.49867 2.41675 4.83335C2.41675 6.16804 3.49873 7.25002 4.83341 7.25002Z" stroke="#141414" stroke-width="1.5" stroke-linecap="round" stroke-linejoin="round"/>
</svg>
