<svg width="29" height="29" viewBox="0 0 29 29" fill="none" xmlns="http://www.w3.org/2000/svg">
<path d="M25.23 7.69295L15.2613 2.23506C15.0282 2.10634 14.7663 2.03882 14.5 2.03882C14.2337 2.03882 13.9718 2.10634 13.7387 2.23506L3.77 7.69182C3.52039 7.82839 3.31212 8.0296 3.16703 8.27435C3.02193 8.5191 2.94535 8.79838 2.94531 9.08291V19.9171C2.94535 20.2017 3.02193 20.4809 3.16703 20.7257C3.31212 20.9704 3.52039 21.1717 3.77 21.3082L13.7387 26.765C13.9719 26.8935 14.2338 26.9609 14.5 26.9609C14.7662 26.9609 15.0281 26.8935 15.2613 26.765L25.23 21.3082C25.4796 21.1717 25.6879 20.9704 25.833 20.7257C25.9781 20.4809 26.0547 20.2017 26.0547 19.9171V9.08291C26.0544 8.79858 25.9778 8.51953 25.8327 8.275C25.6876 8.03046 25.4794 7.82943 25.23 7.69295ZM14.5 13.7252L5.03988 8.54596L9.4182 6.15006L14.176 8.75553C14.276 8.81026 14.3882 8.83895 14.5023 8.83895C14.6163 8.83895 14.7285 8.81026 14.8285 8.75553L19.5863 6.15006L23.9646 8.54596L14.5 13.7252ZM14.3867 3.42678C14.4201 3.40854 14.4575 3.39897 14.4955 3.39897C14.5335 3.39897 14.5709 3.40854 14.6042 3.42678L18.1613 5.37522L14.5 7.38143L10.8331 5.37522L14.3867 3.42678ZM4.30469 19.9171V15.3859L8.38281 17.6175V22.2802L4.41797 20.1154C4.38323 20.0953 4.35443 20.0664 4.33453 20.0316C4.31463 19.9967 4.30433 19.9572 4.30469 19.9171ZM9.74219 23.0278V17.2188C9.74211 17.0969 9.70927 16.9773 9.64709 16.8724C9.5849 16.7676 9.49568 16.6814 9.38875 16.6229L4.30469 13.8396V9.6935L13.8203 14.9044V25.2617L9.74219 23.0278ZM15.1797 25.2617V14.9033L24.6953 9.69237V13.8385L19.6112 16.6218C19.5042 16.6804 19.4148 16.7667 19.3526 16.8718C19.2904 16.9768 19.2577 17.0967 19.2578 17.2188V23.0278L15.1797 25.2617ZM24.582 20.1165L20.6172 22.2847V17.6209L24.6953 15.3893V19.9205C24.6951 19.9601 24.6845 19.9989 24.6646 20.033C24.6447 20.0672 24.6163 20.0956 24.582 20.1154V20.1165Z" fill="#141414"/>
</svg>
