<svg width="29" height="29" viewBox="0 0 29 29" fill="none" xmlns="http://www.w3.org/2000/svg">
<path d="M9.42508 2.41669H19.5751C23.4417 2.41669 26.5834 5.55835 26.5834 9.42502V19.575C26.5834 21.4337 25.845 23.2163 24.5307 24.5307C23.2164 25.845 21.4338 26.5834 19.5751 26.5834H9.42508C5.55841 26.5834 2.41675 23.4417 2.41675 19.575V9.42502C2.41675 7.5663 3.15512 5.7837 4.46944 4.46938C5.78376 3.15506 7.56636 2.41669 9.42508 2.41669ZM9.18341 4.83335C8.02972 4.83335 6.92328 5.29166 6.1075 6.10744C5.29172 6.92322 4.83341 8.02966 4.83341 9.18335V19.8167C4.83341 22.2213 6.77883 24.1667 9.18341 24.1667H19.8167C20.9704 24.1667 22.0769 23.7084 22.8927 22.8926C23.7084 22.0768 24.1667 20.9704 24.1667 19.8167V9.18335C24.1667 6.77877 22.2213 4.83335 19.8167 4.83335H9.18341ZM20.8438 6.64585C21.2444 6.64585 21.6286 6.80499 21.9119 7.08824C22.1951 7.3715 22.3542 7.75568 22.3542 8.15627C22.3542 8.55686 22.1951 8.94104 21.9119 9.2243C21.6286 9.50755 21.2444 9.66669 20.8438 9.66669C20.4432 9.66669 20.0591 9.50755 19.7758 9.2243C19.4925 8.94104 19.3334 8.55686 19.3334 8.15627C19.3334 7.75568 19.4925 7.3715 19.7758 7.08824C20.0591 6.80499 20.4432 6.64585 20.8438 6.64585ZM14.5001 8.45835C16.1024 8.45835 17.6392 9.09488 18.7722 10.2279C19.9052 11.3609 20.5417 12.8977 20.5417 14.5C20.5417 16.1024 19.9052 17.6391 18.7722 18.7721C17.6392 19.9052 16.1024 20.5417 14.5001 20.5417C12.8977 20.5417 11.361 19.9052 10.228 18.7721C9.09495 17.6391 8.45842 16.1024 8.45842 14.5C8.45842 12.8977 9.09495 11.3609 10.228 10.2279C11.361 9.09488 12.8977 8.45835 14.5001 8.45835ZM14.5001 10.875C13.5387 10.875 12.6166 11.2569 11.9368 11.9368C11.257 12.6166 10.8751 13.5386 10.8751 14.5C10.8751 15.4614 11.257 16.3835 11.9368 17.0633C12.6166 17.7431 13.5387 18.125 14.5001 18.125C15.4615 18.125 16.3835 17.7431 17.0633 17.0633C17.7432 16.3835 18.1251 15.4614 18.1251 14.5C18.1251 13.5386 17.7432 12.6166 17.0633 11.9368C16.3835 11.2569 15.4615 10.875 14.5001 10.875Z" fill="#141414"/>
</svg>
