<svg width="29" height="29" viewBox="0 0 29 29" fill="none" xmlns="http://www.w3.org/2000/svg">
<path d="M10.875 22.9583C5.67917 24.65 5.67917 19.9375 3.625 19.3333M18.125 25.375V21.1458C18.125 19.9375 18.2458 19.4542 17.5208 18.7292C20.9042 18.3667 24.1667 17.0375 24.1667 11.4792C24.1652 10.0352 23.6018 8.64842 22.5958 7.6125C23.0676 6.35821 23.0242 4.96822 22.475 3.74583C22.475 3.74583 21.1458 3.38334 18.2458 5.31667C15.7896 4.67696 13.2104 4.67696 10.7542 5.31667C7.85417 3.38334 6.525 3.74583 6.525 3.74583C5.97579 4.96822 5.93235 6.35821 6.40417 7.6125C5.39817 8.64842 4.8348 10.0352 4.83333 11.4792C4.83333 17.0375 8.09583 18.3667 11.4792 18.7292C10.7542 19.4542 10.7542 20.1792 10.875 21.1458V25.375" stroke="#141414" stroke-width="2" stroke-linecap="round" stroke-linejoin="round"/>
</svg>
