<svg width="29" height="29" viewBox="0 0 29 29" fill="none" xmlns="http://www.w3.org/2000/svg">
<g clip-path="url(#clip0_310_32)">
<path d="M26.7834 10.4237L14.0959 1.96476C13.947 1.8654 13.772 1.81238 13.5929 1.81238C13.4139 1.81238 13.2389 1.8654 13.09 1.96476L0.402479 10.4237C0.278344 10.5065 0.176525 10.6186 0.106028 10.7501C0.0355307 10.8816 -0.00147247 11.0285 -0.00170898 11.1777V19.6366C-0.00170898 19.9393 0.150541 20.2221 0.402479 20.3906L13.09 28.8496C13.2387 28.9486 13.4134 29.0014 13.592 29.0014C13.7707 29.0014 13.9454 28.9486 14.0941 28.8496L26.7816 20.3906C26.9057 20.3078 27.0076 20.1957 27.0781 20.0642C27.1486 19.9327 27.1856 19.7859 27.1858 19.6366V11.1777C27.1856 11.0285 27.1486 10.8816 27.0781 10.7501C27.0076 10.6186 26.9057 10.5065 26.7816 10.4237H26.7834ZM13.5939 18.5455L8.88317 15.4063L13.5939 12.267L18.3045 15.4063L13.5939 18.5455ZM14.5001 10.692V4.41164L24.6483 11.1759L19.9376 14.3151L14.5001 10.6901V10.692ZM12.6876 10.692L7.2501 14.317L2.53942 11.1777L12.6876 4.41345V10.692ZM5.61704 15.4063L1.8126 17.9419V12.8706L5.61704 15.4063ZM7.2501 16.4956L12.6876 20.1206V26.4009L2.53942 19.6366L7.2501 16.4974V16.4956ZM14.5001 20.1206L19.9376 16.4956L24.6483 19.6348L14.5001 26.3991V20.1206ZM21.5707 15.4063L25.3751 12.8706V17.9419L21.5707 15.4063Z" fill="#141414"/>
</g>
<defs>
<clipPath id="clip0_310_32">
<rect width="29" height="29" fill="white"/>
</clipPath>
</defs>
</svg>
